<svg width="61" height="53" viewBox="0 0 61 53" fill="none" xmlns="http://www.w3.org/2000/svg">
<g clip-path="url(#clip0_2_2)">
<path d="M53.1256 29.2562C52.4546 29.2562 51.7531 29.07 51.0821 28.937C49.7229 28.6722 48.3866 28.3257 47.0847 27.8997C45.6683 27.4509 44.1109 27.4742 42.7136 27.9651C41.3163 28.4562 40.1783 29.3802 39.5149 30.5593L38.8439 31.7828C35.8797 30.3178 33.1423 28.5304 30.6947 26.4636C28.3233 24.3315 26.2722 21.9453 24.5909 19.3622L25.9958 18.8037C27.3492 18.2264 28.4091 17.2333 28.9715 16.0156C29.5357 14.7979 29.5624 13.4416 29.0477 12.2077C28.5616 11.0616 28.1651 9.88881 27.8563 8.69714C27.7038 8.11198 27.5818 7.50016 27.4903 6.91501C27.1205 5.04163 25.9939 3.34513 24.3164 2.1311C22.637 0.916902 20.5153 0.265002 18.3346 0.292495H9.14837C7.85784 0.29117 6.58252 0.52735 5.40446 0.985634C4.22639 1.44392 3.17228 2.1142 2.31256 2.95227C1.43569 3.81302 0.781839 4.82929 0.396777 5.93103C0.0117136 7.03294 -0.0950392 8.1943 0.0841483 9.33545C1.74449 20.4052 7.5471 30.6888 16.5961 38.5915C25.6641 46.4769 37.4638 51.5344 50.1671 52.9803C50.5617 53.0066 50.9601 53.0066 51.3566 52.9803C53.6059 52.9831 55.7791 52.2635 57.4604 50.9588C58.4211 50.2094 59.1912 49.291 59.7174 48.2643C60.2435 47.2376 60.5142 46.1256 60.5123 45.0013V37.0223C60.4951 35.1845 59.7517 33.4082 58.4059 31.9931C57.0601 30.5782 55.1957 29.6114 53.1256 29.2562ZM54.622 45.214C54.6201 45.5851 54.5305 45.952 54.357 46.291C54.1835 46.6299 53.93 46.9335 53.6155 47.1823C53.28 47.4478 52.8816 47.6452 52.4488 47.7601C52.0161 47.8752 51.5605 47.9049 51.1126 47.8471C39.7227 46.5509 29.1392 42.0278 20.99 34.9744C12.8331 27.8664 7.59857 18.6106 6.09644 8.6438C6.03163 8.25376 6.06406 7.85576 6.1975 7.47847C6.32903 7.10134 6.55585 6.75452 6.86085 6.46302C7.14869 6.18411 7.50135 5.96167 7.89595 5.81046C8.29054 5.65908 8.71756 5.58239 9.14837 5.58521H18.3041C19.0094 5.5703 19.6995 5.76872 20.2561 6.14701C20.8127 6.52529 21.2016 7.05977 21.356 7.65983C21.356 8.37798 21.6305 9.12263 21.8135 9.84078C22.1662 11.234 22.637 12.6029 23.2184 13.9365L18.9446 15.692C18.2106 15.9858 17.6407 16.5214 17.3586 17.1813C17.0536 17.8289 17.0536 18.5551 17.3586 19.2027C21.7506 27.4017 29.3127 33.9924 38.7219 37.8201C39.4654 38.0863 40.2984 38.0863 41.0418 37.8201C41.7986 37.5745 42.4124 37.0771 42.7498 36.4372L44.6732 32.7138C46.2478 33.2141 47.8586 33.6227 49.4942 33.9371C50.2891 34.0967 51.1431 34.2297 51.9666 34.3361C52.6547 34.4712 53.2685 34.8101 53.7032 35.295C54.1359 35.78 54.3646 36.3809 54.3475 36.9957L54.622 45.214ZM36.6155 0C35.914 0 35.182 0 34.4786 0C33.6704 0.0599563 32.9212 0.397662 32.397 0.938925C31.8747 1.48002 31.6173 2.18029 31.6879 2.88568C31.7565 3.59108 32.1435 4.24381 32.7649 4.70011C33.3844 5.15657 34.1889 5.37933 34.999 5.31938H36.6155C41.4727 5.31938 46.1296 7.00064 49.5647 9.99332C52.9978 12.986 54.927 17.045 54.927 21.2772C54.927 21.756 54.927 22.208 54.927 22.6868C54.8602 23.3884 55.1138 24.0849 55.6342 24.6233C56.1546 25.1618 56.8999 25.4983 57.7044 25.5593H57.9484C58.7128 25.5619 59.4505 25.3148 60.0147 24.8668C60.579 24.4186 60.9317 23.8021 61.0003 23.139C61.0003 22.5272 61.0003 21.8888 61.0003 21.2772C61.0003 15.6388 58.4326 10.2308 53.8595 6.24141C49.2883 2.25184 43.0853 0.00712188 36.6155 0ZM42.7193 21.2772C42.7193 21.9826 43.0415 22.659 43.6134 23.1579C44.1852 23.6567 44.9611 23.9368 45.7712 23.9368C46.5814 23.9368 47.3572 23.6567 47.9291 23.1579C48.501 22.659 48.8232 21.9826 48.8232 21.2772C48.8232 18.4556 47.5364 15.7496 45.247 13.7545C42.9576 11.7594 39.8542 10.6386 36.6155 10.6386C35.8073 10.6386 35.0295 10.9188 34.4577 11.4175C33.8858 11.9164 33.5636 12.5928 33.5636 13.2982C33.5636 14.0036 33.8858 14.6802 34.4577 15.1789C35.0295 15.6777 35.8073 15.958 36.6155 15.958C38.2339 15.958 39.7875 16.5183 40.9313 17.5158C42.0769 18.5134 42.7193 19.8664 42.7193 21.2772Z" fill="white"/>
</g>
<defs>
<clipPath id="clip0_2_2">
<rect width="61" height="53" fill="white"/>
</clipPath>
</defs>
</svg>
